<svg xmlns="http://www.w3.org/2000/svg" width="275.011" height="272.721" viewBox="0 0 275.011 272.721">
  <g id="C1" transform="translate(-1383.593 -361.267)">
    <g id="Grupo_5512" data-name="Grupo 5512" transform="translate(-1310.391 -3582.281)">
      <g id="Grupo_5511" data-name="Grupo 5511">
        <g id="Grupo_5510" data-name="Grupo 5510">
          <path id="Trazado_25053" data-name="Trazado 25053" d="M2853.487,4501.581l-44.179-.687.034-2.316,44.145.736Z" transform="translate(-115.324 -421.746)" fill="#2879be"/>
          <path id="Trazado_25054" data-name="Trazado 25054" d="M2854.139,4481.671,2810.1,4478.8l.115-2.268,44.059,2.863Z" transform="translate(-115.873 -406.422)" fill="#2879be"/>
          <path id="Trazado_25055" data-name="Trazado 25055" d="M2855.7,4461.723l-43.832-5.087.274-2.307,43.849,5.08Z" transform="translate(-117.105 -390.99)" fill="#2879be"/>
          <path id="Trazado_25056" data-name="Trazado 25056" d="M2858.337,4441.959l-43.522-7.189.349-2.269,43.565,7.255Z" transform="translate(-119.152 -375.818)" fill="#2879be"/>
          <path id="Trazado_25057" data-name="Trazado 25057" d="M2861.765,4422.4,2818.636,4413l.514-2.307,43.14,9.431Z" transform="translate(-121.808 -360.664)" fill="#2879be"/>
          <path id="Trazado_25058" data-name="Trazado 25058" d="M2866.384,4402.942l-42.624-11.535.611-2.271,42.6,11.6Z" transform="translate(-125.369 -345.676)" fill="#2879be"/>
          <path id="Trazado_25059" data-name="Trazado 25059" d="M2871.909,4383.939,2829.9,4370.3l.742-2.112,41.972,13.631Z" transform="translate(-129.637 -331.119)" fill="#2879be"/>
          <path id="Trazado_25060" data-name="Trazado 25060" d="M2878.456,4365.061l-41.173-15.7.795-2.161,41.263,15.7Z" transform="translate(-134.769 -316.531)" fill="#2879be"/>
          <path id="Trazado_25061" data-name="Trazado 25061" d="M2885.774,4346.746l-40.419-17.8.906-2.038,40.459,17.722Z" transform="translate(-140.38 -302.422)" fill="#2879be"/>
          <path id="Trazado_25062" data-name="Trazado 25062" d="M2894.217,4328.487l-39.47-19.675,1.016-2.122,39.518,19.795Z" transform="translate(-146.908 -288.371)" fill="#2879be"/>
          <path id="Trazado_25063" data-name="Trazado 25063" d="M2903.351,4311.077l-38.466-21.751,1.113-1.961,38.5,21.628Z" transform="translate(-153.954 -274.938)" fill="#2879be"/>
          <path id="Trazado_25064" data-name="Trazado 25064" d="M2913.467,4293.832l-37.354-23.588,1.244-1.963,37.335,23.583Z" transform="translate(-161.758 -261.674)" fill="#2879be"/>
          <path id="Trazado_25065" data-name="Trazado 25065" d="M2924.461,4277.137l-36.1-25.43,1.287-1.9,36.176,25.424Z" transform="translate(-170.269 -248.836)" fill="#2879be"/>
          <path id="Trazado_25066" data-name="Trazado 25066" d="M2936.193,4261.146l-34.813-27.206,1.411-1.859,34.837,27.241Z" transform="translate(-179.321 -236.512)" fill="#2879be"/>
          <path id="Trazado_25067" data-name="Trazado 25067" d="M2948.85,4245.607l-33.4-28.937,1.495-1.778,33.462,28.927Z" transform="translate(-189.102 -224.564)" fill="#2879be"/>
          <path id="Trazado_25068" data-name="Trazado 25068" d="M2962.1,4230.8l-31.919-30.54,1.635-1.71,31.9,30.557Z" transform="translate(-199.343 -213.205)" fill="#2879be"/>
          <path id="Trazado_25069" data-name="Trazado 25069" d="M2976.269,4216.661l-30.385-32.134,1.712-1.658,30.4,32.2Z" transform="translate(-210.255 -202.307)" fill="#2879be"/>
          <path id="Trazado_25070" data-name="Trazado 25070" d="M2991.072,4203.323l-28.752-33.646,1.741-1.5,28.8,33.637Z" transform="translate(-221.679 -192.094)" fill="#2879be"/>
          <path id="Trazado_25071" data-name="Trazado 25071" d="M3006.655,4190.577l-27-35.074,1.812-1.427,27.015,35.039Z" transform="translate(-233.728 -182.293)" fill="#2879be"/>
          <path id="Trazado_25072" data-name="Trazado 25072" d="M3022.687,4178.724l-25.253-36.39,1.917-1.324,25.241,36.4Z" transform="translate(-246.085 -173.211)" fill="#2879be"/>
          <path id="Trazado_25073" data-name="Trazado 25073" d="M3039.32,4167.592l-23.337-37.565,1.994-1.315,23.387,37.676Z" transform="translate(-258.978 -164.662)" fill="#2879be"/>
          <path id="Trazado_25074" data-name="Trazado 25074" d="M3056.665,4157.521l-21.482-38.727,2.039-1.121,21.461,38.739Z" transform="translate(-272.324 -156.99)" fill="#2879be"/>
          <path id="Trazado_25075" data-name="Trazado 25075" d="M3074.409,4148.109l-19.484-39.78,2.1-1.046,19.512,39.786Z" transform="translate(-286.046 -149.768)" fill="#2879be"/>
          <path id="Trazado_25076" data-name="Trazado 25076" d="M3092.644,4139.7l-17.5-40.753,2.155-.934,17.5,40.759Z" transform="translate(-300.101 -143.322)" fill="#2879be"/>
          <path id="Trazado_25077" data-name="Trazado 25077" d="M3111.373,4132.034l-15.417-41.647,2.177-.859,15.395,41.7Z" transform="translate(-314.565 -137.428)" fill="#2879be"/>
          <path id="Trazado_25078" data-name="Trazado 25078" d="M3130.385,4125.526l-13.32-42.4,2.2-.7,13.354,42.38Z" transform="translate(-329.238 -132.494)" fill="#2879be"/>
          <path id="Trazado_25079" data-name="Trazado 25079" d="M3149.84,4119.953l-11.141-43.071,2.224-.493,11.159,42.993Z" transform="translate(-344.274 -128.295)" fill="#2879be"/>
          <path id="Trazado_25080" data-name="Trazado 25080" d="M3169.45,4115.253l-9-43.575,2.3-.464,9,43.508Z" transform="translate(-359.393 -124.697)" fill="#2879be"/>
          <path id="Trazado_25081" data-name="Trazado 25081" d="M3189.3,4111.566l-6.78-44.026,2.3-.336,6.783,43.956Z" transform="translate(-374.734 -121.91)" fill="#2879be"/>
          <path id="Trazado_25082" data-name="Trazado 25082" d="M3209.374,4108.694l-4.617-44.263,2.371-.344,4.563,44.355Z" transform="translate(-390.189 -119.744)" fill="#2879be"/>
          <path id="Trazado_25083" data-name="Trazado 25083" d="M3229.615,4107.044l-2.324-44.54,2.324-.11,2.334,44.515Z" transform="translate(-405.852 -118.568)" fill="#2879be"/>
          <path id="Trazado_25084" data-name="Trazado 25084" d="M3249.86,4106.214l-.1-44.625,2.37-.111.07,44.717Z" transform="translate(-421.473 -117.93)" fill="#2879be"/>
          <path id="Trazado_25085" data-name="Trazado 25085" d="M3265.24,4106.423l2.21-44.592,2.331.045-2.156,44.684Z" transform="translate(-432.23 -118.176)" fill="#2879be"/>
          <path id="Trazado_25086" data-name="Trazado 25086" d="M3280.407,4107.421l4.447-44.552,2.334.247-4.427,44.568Z" transform="translate(-442.772 -118.898)" fill="#2879be"/>
        </g>
        <path id="Trazado_25087" data-name="Trazado 25087" d="M3295.61,4109.355l6.658-44.282,2.379.369-6.725,44.3Z" transform="translate(-453.339 -120.43)" fill="#2879be"/>
        <path id="Trazado_25088" data-name="Trazado 25088" d="M3310.573,4112.64l8.944-43.937,2.311.412L3312.9,4113.1Z" transform="translate(-463.739 -122.951)" fill="#2879be"/>
        <path id="Trazado_25089" data-name="Trazado 25089" d="M3325.383,4116.607l11.2-43.448,2.271.528-11.1,43.5Z" transform="translate(-474.034 -126.051)" fill="#2879be"/>
        <path id="Trazado_25090" data-name="Trazado 25090" d="M3340.227,4121.656l13.348-42.9,2.273.648L3342.5,4122.35Z" transform="translate(-484.352 -129.941)" fill="#2879be"/>
        <path id="Trazado_25091" data-name="Trazado 25091" d="M3354.855,4127.73l15.448-42.288,2.283.763-15.518,42.261Z" transform="translate(-494.52 -134.588)" fill="#2879be"/>
        <path id="Trazado_25092" data-name="Trazado 25092" d="M3368.984,4134.7l17.66-41.418,2.193.806-17.666,41.545Z" transform="translate(-504.34 -140.035)" fill="#2879be"/>
        <path id="Trazado_25093" data-name="Trazado 25093" d="M3383.17,4142.686l19.7-40.624,2.132,1.043-19.72,40.51Z" transform="translate(-514.2 -146.139)" fill="#2879be"/>
        <path id="Trazado_25094" data-name="Trazado 25094" d="M3396.851,4151.405l21.739-39.547,2.093,1.143-21.755,39.5Z" transform="translate(-523.709 -152.949)" fill="#2879be"/>
        <path id="Trazado_25095" data-name="Trazado 25095" d="M3410.225,4161.412l23.712-38.366,2.057,1.133-23.733,38.458Z" transform="translate(-533.005 -160.725)" fill="#2879be"/>
        <path id="Trazado_25096" data-name="Trazado 25096" d="M3423.115,4172.039l25.7-37.218,1.939,1.293-25.682,37.261Z" transform="translate(-541.965 -168.91)" fill="#2879be"/>
        <path id="Trazado_25097" data-name="Trazado 25097" d="M3435.788,4183.6l27.5-36,1.956,1.41-27.614,35.932Z" transform="translate(-550.773 -177.789)" fill="#2879be"/>
        <path id="Trazado_25098" data-name="Trazado 25098" d="M3447.9,4195.99l29.343-34.586,1.844,1.423-29.416,34.628Z" transform="translate(-559.195 -187.387)" fill="#2879be"/>
        <path id="Trazado_25099" data-name="Trazado 25099" d="M3459.476,4209.162l31.113-33.121,1.745,1.541-31.115,33.126Z" transform="translate(-567.238 -197.561)" fill="#2879be"/>
        <path id="Trazado_25100" data-name="Trazado 25100" d="M3470.608,4223.127l32.742-31.5L3505,4193.2l-32.765,31.629Z" transform="translate(-574.976 -208.395)" fill="#2879be"/>
        <path id="Trazado_25101" data-name="Trazado 25101" d="M3481.264,4237.756l34.322-29.911,1.569,1.741-34.323,29.876Z" transform="translate(-582.382 -219.666)" fill="#2879be"/>
        <path id="Trazado_25102" data-name="Trazado 25102" d="M3491.13,4253.018l35.817-28.134,1.506,1.863-35.819,28.136Z" transform="translate(-589.24 -231.51)" fill="#2879be"/>
        <path id="Trazado_25103" data-name="Trazado 25103" d="M3500.628,4269.1l37.236-26.384,1.379,1.865L3502,4270.953Z" transform="translate(-595.842 -243.904)" fill="#2879be"/>
        <path id="Trazado_25104" data-name="Trazado 25104" d="M3509.505,4285.657l38.509-24.543,1.281,2-38.512,24.494Z" transform="translate(-602.012 -256.691)" fill="#2879be"/>
        <path id="Trazado_25105" data-name="Trazado 25105" d="M3517.871,4303.022l39.651-22.583,1.209,2.027-39.767,22.541Z" transform="translate(-607.827 -270.125)" fill="#2879be"/>
        <path id="Trazado_25106" data-name="Trazado 25106" d="M3525.165,4320.8l40.819-20.508,1.1,2.04-40.854,20.617Z" transform="translate(-612.896 -283.926)" fill="#2879be"/>
        <path id="Trazado_25107" data-name="Trazado 25107" d="M3531.957,4338.964l41.827-18.544,1.039,2.078-41.871,18.621Z" transform="translate(-617.617 -297.914)" fill="#2879be"/>
        <path id="Trazado_25108" data-name="Trazado 25108" d="M3538.137,4357.564l42.758-16.453.853,2.239-42.765,16.369Z" transform="translate(-621.913 -312.297)" fill="#2879be"/>
        <path id="Trazado_25109" data-name="Trazado 25109" d="M3543.574,4376.745l43.524-14.277.773,2.24-43.55,14.27Z" transform="translate(-625.692 -327.141)" fill="#2879be"/>
        <path id="Trazado_25110" data-name="Trazado 25110" d="M3548.335,4396.212l44.172-12.091.66,2.23-44.241,12.105Z" transform="translate(-629.002 -342.191)" fill="#2879be"/>
        <path id="Trazado_25111" data-name="Trazado 25111" d="M3552.145,4415.891l44.782-9.887.552,2.242-44.8,9.956Z" transform="translate(-631.649 -357.4)" fill="#2879be"/>
        <path id="Trazado_25112" data-name="Trazado 25112" d="M3555.292,4435.712l45.3-7.676.358,2.321-45.211,7.667Z" transform="translate(-633.837 -372.715)" fill="#2879be"/>
        <path id="Trazado_25113" data-name="Trazado 25113" d="M3557.84,4455.9l45.564-5.416.3,2.322-45.551,5.445Z" transform="translate(-635.608 -388.32)" fill="#2879be"/>
        <path id="Trazado_25114" data-name="Trazado 25114" d="M3559.478,4476.124l45.841-3.2.143,2.36-45.835,3.155Z" transform="translate(-636.746 -403.916)" fill="#2879be"/>
        <path id="Trazado_25115" data-name="Trazado 25115" d="M3560.43,4496.454l45.895-.941.078,2.4-45.95.844Z" transform="translate(-637.408 -419.617)" fill="#2879be"/>
        <path id="Trazado_25116" data-name="Trazado 25116" d="M3560.357,4513.483l45.872,1.486-.066,2.354-45.87-1.4Z" transform="translate(-637.313 -432.107)" fill="#2879be"/>
      </g>
      <path id="Trazado_25117" data-name="Trazado 25117" d="M3559.53,4528.793l45.734,3.7-.136,2.323-45.769-3.669Z" transform="translate(-636.664 -442.748)" fill="#2879be"/>
      <path id="Trazado_25118" data-name="Trazado 25118" d="M3557.885,4543.962l45.565,5.921-.358,2.321-45.5-5.931Z" transform="translate(-635.433 -453.293)" fill="#2879be"/>
      <path id="Trazado_25119" data-name="Trazado 25119" d="M3555.4,4559.014l45.123,8.223-.431,2.32-45.127-8.279Z" transform="translate(-633.61 -463.754)" fill="#2879be"/>
      <path id="Trazado_25120" data-name="Trazado 25120" d="M3552.219,4573.921l44.722,10.43-.575,2.28-44.625-10.407Z" transform="translate(-631.369 -474.115)" fill="#2879be"/>
      <path id="Trazado_25121" data-name="Trazado 25121" d="M3548.206,4588.534l44.01,12.663-.609,2.269-44.134-12.656Z" transform="translate(-628.403 -484.273)" fill="#2879be"/>
      <path id="Trazado_25122" data-name="Trazado 25122" d="M3543.555,4603.183l43.39,14.778-.8,2.251-43.32-14.844Z" transform="translate(-625.174 -494.455)" fill="#2879be"/>
      <path id="Trazado_25123" data-name="Trazado 25123" d="M3538.1,4617.406l42.54,16.924-.9,2.186-42.556-16.918Z" transform="translate(-621.247 -504.342)" fill="#2879be"/>
      <path id="Trazado_25124" data-name="Trazado 25124" d="M3532.066,4631.529l41.6,19-.989,2.079-41.589-18.971Z" transform="translate(-617.017 -514.156)" fill="#2879be"/>
      <path id="Trazado_25125" data-name="Trazado 25125" d="M3525.194,4645.1l40.579,21.086-1.131,2.079-40.573-21.064Z" transform="translate(-612.135 -523.592)" fill="#2879be"/>
      <path id="Trazado_25126" data-name="Trazado 25126" d="M3517.659,4658.5l39.477,23.015-1.174,2.038-39.47-23.059Z" transform="translate(-606.868 -532.904)" fill="#2879be"/>
      <path id="Trazado_25127" data-name="Trazado 25127" d="M3509.5,4671.546l38.167,24.93-1.266,1.958-38.251-24.976Z" transform="translate(-601.07 -541.973)" fill="#2879be"/>
      <path id="Trazado_25128" data-name="Trazado 25128" d="M3500.654,4683.927l36.906,26.844-1.416,1.869-36.889-26.808Z" transform="translate(-594.888 -550.578)" fill="#2879be"/>
      <path id="Trazado_25129" data-name="Trazado 25129" d="M3491.224,4696.147l35.516,28.561-1.457,1.786-35.509-28.562Z" transform="translate(-588.299 -559.072)" fill="#2879be"/>
      <path id="Trazado_25130" data-name="Trazado 25130" d="M3481.161,4707.724,3515.117,4738l-1.586,1.745-33.988-30.279Z" transform="translate(-581.187 -567.119)" fill="#2879be"/>
      <path id="Trazado_25131" data-name="Trazado 25131" d="M3470.537,4718.769l32.406,31.934-1.681,1.627-32.4-31.909Z" transform="translate(-573.764 -574.795)" fill="#2879be"/>
      <path id="Trazado_25132" data-name="Trazado 25132" d="M3459.453,4729.421l30.712,33.471-1.738,1.584-30.718-33.482Z" transform="translate(-566.011 -582.199)" fill="#2879be"/>
      <path id="Trazado_25133" data-name="Trazado 25133" d="M3447.885,4739.4l28.957,34.895-1.85,1.5-28.92-34.938Z" transform="translate(-557.922 -589.133)" fill="#2879be"/>
      <path id="Trazado_25134" data-name="Trazado 25134" d="M3435.724,4748.813l27.147,36.276-1.849,1.373-27.189-36.262Z" transform="translate(-549.414 -595.678)" fill="#2879be"/>
      <path id="Trazado_25135" data-name="Trazado 25135" d="M3423.256,4757.742l25.239,37.564-2.025,1.262-25.189-37.557Z" transform="translate(-540.69 -601.885)" fill="#2879be"/>
      <path id="Trazado_25136" data-name="Trazado 25136" d="M3410.085,4765.608l23.278,38.768-2.008,1.254-23.334-38.758Z" transform="translate(-531.473 -607.352)" fill="#2879be"/>
      <path id="Trazado_25137" data-name="Trazado 25137" d="M3396.849,4773.326l21.291,39.822-2.127,1.013-21.269-39.773Z" transform="translate(-522.245 -612.717)" fill="#2879be"/>
      <path id="Trazado_25138" data-name="Trazado 25138" d="M3383.108,4780.279l19.257,40.785-2.168.966-19.228-40.808Z" transform="translate(-512.67 -617.549)" fill="#2879be"/>
      <path id="Trazado_25139" data-name="Trazado 25139" d="M3369.126,4786.419,3386.253,4828l-2.179.933-17.127-41.692Z" transform="translate(-502.924 -621.816)" fill="#2879be"/>
      <path id="Trazado_25140" data-name="Trazado 25140" d="M3354.86,4791.957l15.036,42.334-2.22.769-14.994-42.419Z" transform="translate(-493.009 -625.666)" fill="#2879be"/>
      <path id="Trazado_25141" data-name="Trazado 25141" d="M3340.209,4796.651l12.85,42.971-2.281.7-12.837-43.011Z" transform="translate(-482.763 -628.93)" fill="#2879be"/>
      <path id="Trazado_25142" data-name="Trazado 25142" d="M3325.522,4800.566l10.639,43.655-2.284.443-10.663-43.561Z" transform="translate(-472.525 -631.65)" fill="#2879be"/>
      <path id="Trazado_25143" data-name="Trazado 25143" d="M3310.652,4803.836l8.418,44.044-2.323.4-8.407-44.033Z" transform="translate(-462.187 -633.924)" fill="#2879be"/>
      <path id="Trazado_25144" data-name="Trazado 25144" d="M3295.561,4806.475l6.209,44.313-2.42.335-6.157-44.363Z" transform="translate(-451.659 -635.758)" fill="#2879be"/>
      <path id="Trazado_25145" data-name="Trazado 25145" d="M3280.508,4808.186l3.957,44.59-2.355.167-3.91-44.542Z" transform="translate(-441.238 -636.947)" fill="#2879be"/>
      <path id="Trazado_25146" data-name="Trazado 25146" d="M3265.391,4809.315l1.635,44.632-2.358.054-1.614-44.656Z" transform="translate(-430.711 -637.732)" fill="#2879be"/>
    </g>
    <g id="Circulo4" transform="translate(1648.189 371.957) rotate(90)">
      <path id="Trazado_23847" data-name="Trazado 23847" d="M402.353,424.7l4.465,8.486a124.29,124.29,0,0,0,19.754-12.926l-5.988-7.488A115.087,115.087,0,0,1,402.353,424.7Z" transform="translate(-224.82 -199.016)" fill="#26a5dc"/>
      <path id="Trazado_23848" data-name="Trazado 23848" d="M392.976,423.749l1.747,9.425a123.488,123.488,0,0,0,22.695-6.508l-3.512-8.916A113.9,113.9,0,0,1,392.976,423.749Z" transform="translate(-247.696 -186.871)" fill="#1dbae1"/>
      <path id="Trazado_23850" data-name="Trazado 23850" d="M356.237,409.5a125.041,125.041,0,0,0,14.381,18.722l7.017-6.542a115.122,115.122,0,0,1-13.274-17.274Z" transform="translate(-337.326 -219.426)" fill="#26a5dc" opacity="0" style="mix-blend-mode: screen;isolation: isolate"/>
      <path id="Trazado_23853" data-name="Trazado 23853" d="M416.286,416.651l8.458,4.513a123.626,123.626,0,0,0,9.074-21.8l-9.163-2.821A114.7,114.7,0,0,1,416.286,416.651Z" transform="translate(-190.828 -238.609)" fill="#26a5dc"/>
      <path id="Trazado_23854" data-name="Trazado 23854" d="M410.357,422.243l6.766,6.8a125.086,125.086,0,0,0,15.09-18.151l-7.922-5.4A115.237,115.237,0,0,1,410.357,422.243Z" transform="translate(-205.293 -216.786)" fill="#26a5dc"/>
      <path id="Trazado_23858" data-name="Trazado 23858" d="M402.466,360.206l-.351-9.579a124.413,124.413,0,0,0-23.4,3.082l2.153,9.345A114.809,114.809,0,0,1,402.466,360.206Z" transform="translate(-282.478 -350.627)" fill="#26a5dc" opacity="0" style="mix-blend-mode: screen;isolation: isolate"/>
      <path id="Trazado_23859" data-name="Trazado 23859" d="M361.217,395.3l-9.27,2.459a123.66,123.66,0,0,0,8.217,22.141l8.627-4.186A114.008,114.008,0,0,1,361.217,395.3Z" transform="translate(-349.482 -240.354)" fill="#26a5dc" opacity="0" style="mix-blend-mode: screen;isolation: isolate"/>
      <path id="Trazado_23862" data-name="Trazado 23862" d="M393.317,361.67l-3.164-9.057a124.049,124.049,0,0,0-21.439,9.882l4.822,8.286A113.97,113.97,0,0,1,393.317,361.67Z" transform="translate(-306.889 -345.782)" fill="#26a5dc" opacity="0" style="mix-blend-mode: screen;isolation: isolate"/>
      <path id="Trazado_23863" data-name="Trazado 23863" d="M365.824,377.928l-9.046-3.178a124.406,124.406,0,0,0-5.651,22.922l9.486,1.4A114.512,114.512,0,0,1,365.824,377.928Z" transform="translate(-349.795 -291.776)" fill="#26a5dc" opacity="0" style="mix-blend-mode: screen;isolation: isolate"/>
      <path id="Trazado_23864" data-name="Trazado 23864" d="M383.6,365.36l-5.7-7.719a125.046,125.046,0,0,0-17.583,15.747l7.044,6.508A115.032,115.032,0,0,1,383.6,365.36Z" transform="translate(-327.365 -333.515)" fill="#26a5dc" opacity="0" style="mix-blend-mode: screen;isolation: isolate"/>
      <path id="Trazado_23865" data-name="Trazado 23865" d="M360.325,390.141c0-1.493.031-2.972.086-4.447l-9.583-.371q-.093,2.389-.089,4.819a125.844,125.844,0,0,0,1.4,18.743l9.483-1.438A116.207,116.207,0,0,1,360.325,390.141Z" transform="translate(-350.739 -265.984)" fill="#26a5dc" opacity="0" style="mix-blend-mode: screen;isolation: isolate"/>
      <path id="Trazado_23866" data-name="Trazado 23866" d="M374.168,370.947l-7.7-5.7a124.789,124.789,0,0,0-12.19,20.215l8.651,4.145A115.393,115.393,0,0,1,374.168,370.947Z" transform="translate(-342.117 -314.967)" fill="#26a5dc" opacity="0" style="mix-blend-mode: screen;isolation: isolate"/>
    </g>
  </g>
</svg>
