<svg xmlns="http://www.w3.org/2000/svg" xmlns:xlink="http://www.w3.org/1999/xlink" width="308.6" height="313.429" viewBox="0 0 308.6 313.429">
  <defs>
    <linearGradient id="linear-gradient" x1="0.5" x2="0.5" y2="1" gradientUnits="objectBoundingBox">
      <stop offset="0" stop-color="#0fe"/>
      <stop offset="1" stop-color="#3580d5"/>
    </linearGradient>
  </defs>
  <path id="C2" d="M3022.733,4036.073a4.886,4.886,0,0,0-2.9.711,151.809,151.809,0,0,0-26.045-19.856,4.822,4.822,0,0,0-5.538-6.183,4.733,4.733,0,0,0-2.676,1.558,153.663,153.663,0,0,0-30.409-11.97,4.817,4.817,0,0,0-9.207-2.232,153.985,153.985,0,0,0-32.465-3.311,4.819,4.819,0,0,0-9.473.354,151.124,151.124,0,0,0-32.146,5.671,4.819,4.819,0,0,0-9.011,2.928,153.242,153.242,0,0,0-26.206,12.346c-72.52,42.952-96.572,136.886-53.634,209.406A152.1,152.1,0,0,0,2803,4252.146a4.819,4.819,0,0,0,3.3,7.912,4.852,4.852,0,0,0,3.485-1.121,151.876,151.876,0,0,0,25.784,19.51,4.761,4.761,0,0,0-.456,3.166,4.822,4.822,0,0,0,8.85,1.551q5.052,2.61,10.257,4.837a4.756,4.756,0,0,0-.039,3.292,4.813,4.813,0,0,0,9.015.219,154.851,154.851,0,0,0,31.334,7.576,4.82,4.82,0,1,0,9.59.962,151.457,151.457,0,0,0,32.207-1.157,4.751,4.751,0,0,0,1.7,2.934,4.818,4.818,0,0,0,7.789-4.582c3.684-.767,7.351-1.685,11-2.72a4.82,4.82,0,0,0,9.171-2.971,152.681,152.681,0,0,0,26.448-12.426,154.23,154.23,0,0,0,19.638-13.806,4.817,4.817,0,0,0,7.217-6.372,153.445,153.445,0,0,0,47.824-120.314,4.7,4.7,0,0,0,1.857-1.181,4.824,4.824,0,0,0-2.675-8.112,151.838,151.838,0,0,0-7.389-32.021,4.879,4.879,0,0,0,1.471-1.663,4.814,4.814,0,0,0-1.962-6.523,4.716,4.716,0,0,0-2.86-.529q-2.254-5.406-4.968-10.669a4.831,4.831,0,0,0-1.571-8.08,4.726,4.726,0,0,0-2.948-.117c-.006-.011,0-.011-.009-.023a152.665,152.665,0,0,0-19.625-26.265,4.746,4.746,0,0,0,.727-2.191A4.817,4.817,0,0,0,3022.733,4036.073Zm21.792,34.389a4.692,4.692,0,0,0-1.706,2.244,4.8,4.8,0,0,0,2.839,6.188,4.725,4.725,0,0,0,3.489-.053q2.6,5.073,4.781,10.258a4.815,4.815,0,0,0,3.429,8.94,150.282,150.282,0,0,1,7.226,31.334,4.816,4.816,0,0,0,.84,9.542,151.683,151.683,0,0,1-47.434,118.921,4.745,4.745,0,0,0-1.805-.616,4.827,4.827,0,0,0-5.054,6.67,152.089,152.089,0,0,1-45.954,26.162,4.507,4.507,0,0,0-1.284-1.145,4.82,4.82,0,0,0-6.625,1.625,4.877,4.877,0,0,0-.688,2.282q-5.651,1.635-11.361,2.812a4.8,4.8,0,0,0-7.879-.579,4.682,4.682,0,0,0-1,2.143,151.085,151.085,0,0,1-32.369,1.15,5.48,5.48,0,0,0-.7-1.491,4.824,4.824,0,0,0-6.715-1.174,4.7,4.7,0,0,0-1.522,1.759,151.588,151.588,0,0,1-31.483-7.606,4.762,4.762,0,0,0-.266-1.7,4.811,4.811,0,0,0-8.171-1.595q-5.351-2.283-10.535-4.978a4.69,4.69,0,0,0-.012-1.833,4.809,4.809,0,0,0-7.959-2.616,150.029,150.029,0,0,1-25.733-19.479,4.82,4.82,0,0,0-6.568-6.566,151.349,151.349,0,0,1-19.823-26.428c-42.469-71.711-18.676-164.6,53.039-207.075a151.112,151.112,0,0,1,25.864-12.189,4.728,4.728,0,0,0,1.762,1.87,4.823,4.823,0,0,0,7.266-4.808,149.882,149.882,0,0,1,31.666-5.586,4.818,4.818,0,0,0,9.483-.347,151.747,151.747,0,0,1,31.985,3.25,4.821,4.821,0,0,0,9.229,2.245,151.638,151.638,0,0,1,29.912,11.78,4.716,4.716,0,0,0-.225,2.649,4.812,4.812,0,0,0,8.525,2.014,150.794,150.794,0,0,1,25.571,19.491,4.814,4.814,0,0,0,3.421,7.765,4.763,4.763,0,0,0,3.3-.979A151.261,151.261,0,0,1,3044.525,4070.462Z" transform="translate(-2761.724 -3991.017)" fill="url(#linear-gradient)" style="mix-blend-mode: overlay;isolation: isolate"/>
</svg>
