<svg xmlns="http://www.w3.org/2000/svg" xmlns:xlink="http://www.w3.org/1999/xlink" width="351.656" height="351.659" viewBox="0 0 351.656 351.659">
  <defs>
    <linearGradient id="linear-gradient" x1="0.5" x2="0.5" y2="1" gradientUnits="objectBoundingBox">
      <stop offset="0" stop-color="#2b388f"/>
      <stop offset="1" stop-color="#26a9e0"/>
    </linearGradient>
  </defs>
  <g id="C3" transform="translate(-2655.657 -3904.072)">
    <g id="Grupo_5483" data-name="Grupo 5483" transform="translate(2840.47 4241.309)">
      <path id="Trazado_25147" data-name="Trazado 25147" d="M3289.7,5041.919l.346-.031a174,174,0,0,0,27.476-3.876l.286-.036,2.629,9.852-.3.116a170.255,170.255,0,0,1-24.78,3.821c-1.592.177-3.242.269-4.973.409h-.356Z" transform="translate(-3289.704 -5037.976)" fill="#2879be"/>
    </g>
    <g id="Grupo_5484" data-name="Grupo 5484" transform="translate(2676.647 4158.333)">
      <path id="Trazado_25148" data-name="Trazado 25148" d="M2752.453,4770.626l9.052-4.765.144.3a165.754,165.754,0,0,0,144.941,86.8h.363l.325,10.254-.325.038a175.762,175.762,0,0,1-51.992-8.027,175.839,175.839,0,0,1-102.4-84.374Zm8.778-3.87-7.894,4.046a175.133,175.133,0,0,0,153.244,91.793l-.277-9A166.38,166.38,0,0,1,2761.231,4766.756Z" transform="translate(-2752.453 -4765.861)" fill="#2879be"/>
    </g>
    <g id="Grupo_5485" data-name="Grupo 5485" transform="translate(2655.84 4087.604)">
      <path id="Trazado_25149" data-name="Trazado 25149" d="M2684.218,4534.238l10.257-.334.025.359a162.6,162.6,0,0,0,15.275,61.669l.057.329-9.058,4.709-.181-.334a175.413,175.413,0,0,1-15.951-59.82c-.125-2.086-.3-4.168-.4-6.28Z" transform="translate(-2684.218 -4533.904)" fill="url(#linear-gradient)"/>
    </g>
    <g id="Grupo_5486" data-name="Grupo 5486" transform="translate(2655.657 4048.996)">
      <path id="Trazado_25150" data-name="Trazado 25150" d="M2686.4,4407.295l10.1,1.959-.039.323a167.277,167.277,0,0,0-2.556,26.66l.052.311-10.338.3.055-.322a183.567,183.567,0,0,1,2.621-28.887Zm9.336,2.477-8.757-1.7a160.478,160.478,0,0,0-2.635,28.077l8.949-.244A169.608,169.608,0,0,1,2695.739,4409.771Z" transform="translate(-2683.618 -4407.295)" fill="#2879be"/>
    </g>
    <g id="Grupo_5487" data-name="Grupo 5487" transform="translate(2660.32 4011.682)">
      <path id="Trazado_25151" data-name="Trazado 25151" d="M2708.111,4284.92l9.411,4.163-.17.3a167.173,167.173,0,0,0-8.2,25.34l-.073.281-10.171-1.948.115-.366c.91-4.045,2.036-8.02,3.219-11.9,1.665-5.289,3.59-10.516,5.73-15.554Z" transform="translate(-2698.91 -4284.92)" fill="#2879be"/>
    </g>
    <g id="Grupo_5488" data-name="Grupo 5488" transform="translate(2673.343 3904.072)">
      <path id="Trazado_25152" data-name="Trazado 25152" d="M2745.82,4022.937h0a182.555,182.555,0,0,1,18.107-26.775,174.3,174.3,0,0,1,54.206-44,174.466,174.466,0,0,1,108.692-18.016l.294.083-1.977,10.085-.361-.048a165.252,165.252,0,0,0-169.881,83.513c-1.291,2.323-2.534,4.752-3.746,7.229l-.128.231-9.408-4.211.158-.287C2743.061,4028.141,2744.438,4025.463,2745.82,4022.937Z" transform="translate(-2741.618 -3932.021)" fill="url(#linear-gradient)"/>
    </g>
    <g id="Grupo_5489" data-name="Grupo 5489" transform="translate(2866.074 3907.949)">
      <path id="Trazado_25153" data-name="Trazado 25153" d="M3375.662,3944.735l.358.1c5.164,1.09,10.327,2.5,15.424,4.089a173.638,173.638,0,0,1,46.95,22.681l.266.188-6.18,8.216-.264-.146a165.243,165.243,0,0,0-58.259-24.938l-.286-.1Zm62.065,27.208a174.425,174.425,0,0,0-46.459-22.414c-4.99-1.576-10.022-2.917-15.027-3.973l-1.806,8.787a166.569,166.569,0,0,1,57.82,24.792Z" transform="translate(-3373.672 -3944.735)" fill="#2879be"/>
    </g>
    <g id="Grupo_5490" data-name="Grupo 5490" transform="translate(2932.433 3940.572)">
      <path id="Trazado_25154" data-name="Trazado 25154" d="M3591.294,4059.86l6.254-8.135.2.14c1.495,1.181,2.952,2.27,4.248,3.346a179.882,179.882,0,0,1,17.456,16.462l.168.194-7.835,6.665-.166-.251a166.192,166.192,0,0,0-20.048-18.224Z" transform="translate(-3591.294 -4051.724)" fill="#2879be"/>
    </g>
    <g id="Grupo_5493" data-name="Grupo 5493" transform="translate(2877.716 3967.848)">
      <g id="Grupo_5491" data-name="Grupo 5491" transform="translate(0 214.833)">
        <path id="Trazado_25155" data-name="Trazado 25155" d="M3411.851,4901.933l.247-.049a169.708,169.708,0,0,0,30.423-12.311A164.722,164.722,0,0,0,3495.214,4846l.152-.286,8.194,6.262-.128.231c-.806.9-1.451,1.687-1.988,2.332a173.854,173.854,0,0,1-54.2,44.075,172.031,172.031,0,0,1-32.537,13.139l-.28.1Zm83.68-55.237a165.05,165.05,0,0,1-52.715,43.45,163.269,163.269,0,0,1-30.239,12.244l2.325,8.666a177.04,177.04,0,0,0,86.042-56.886c.566-.64,1.1-1.34,1.674-2.094Z" transform="translate(-3411.851 -4845.71)" fill="url(#linear-gradient)"/>
      </g>
      <g id="Grupo_5492" data-name="Grupo 5492" transform="translate(81.41)">
        <path id="Trazado_25156" data-name="Trazado 25156" d="M3678.832,4147.7l7.808-6.529.237.231a175.157,175.157,0,0,1,8.031,213.012l-.168.317-8.225-6.238.232-.261a162.346,162.346,0,0,0,9.277-14.921,165.45,165.45,0,0,0,1.8-156.968,167.836,167.836,0,0,0-18.791-28.382Z" transform="translate(-3678.832 -4141.172)" fill="url(#linear-gradient)"/>
      </g>
    </g>
  </g>
</svg>
